<svg width="14" height="14" viewBox="0 0 14 14" fill="none" xmlns="http://www.w3.org/2000/svg">
<g clip-path="url(#clip0)">
<path d="M11.0645 1.0625H10.252V0.65625C10.252 0.431695 10.0703 0.25 9.8457 0.25C9.62115 0.25 9.43945 0.431695 9.43945 0.65625V1.0625H7.81445V0.65625C7.81445 0.431695 7.63276 0.25 7.4082 0.25C7.18365 0.25 7.00195 0.431695 7.00195 0.65625V1.0625H5.37695V0.65625C5.37695 0.431695 5.19526 0.25 4.9707 0.25C4.74615 0.25 4.56445 0.431695 4.56445 0.65625V1.0625H2.93945V0.65625C2.93945 0.431695 2.75776 0.25 2.5332 0.25C2.30865 0.25 2.12695 0.431695 2.12695 0.65625V1.0625H1.31445C0.642414 1.0625 0.0957031 1.60921 0.0957031 2.28125V12.0312C0.0957031 12.2558 0.277398 12.4375 0.501953 12.4375H7.21465C6.8245 11.856 6.5957 11.1576 6.5957 10.4062C6.5957 8.39008 8.23579 6.75 10.252 6.75C11.0033 6.75 11.7017 6.9788 12.2832 7.36895V2.28125C12.2832 1.60921 11.7365 1.0625 11.0645 1.0625ZM2.93945 10.8125H2.12695C1.9024 10.8125 1.7207 10.6308 1.7207 10.4062C1.7207 10.1817 1.9024 10 2.12695 10H2.93945C3.16401 10 3.3457 10.1817 3.3457 10.4062C3.3457 10.6308 3.16401 10.8125 2.93945 10.8125ZM2.93945 9.1875H2.12695C1.9024 9.1875 1.7207 9.00581 1.7207 8.78125C1.7207 8.55669 1.9024 8.375 2.12695 8.375H2.93945C3.16401 8.375 3.3457 8.55669 3.3457 8.78125C3.3457 9.00581 3.16401 9.1875 2.93945 9.1875ZM2.93945 7.5625H2.12695C1.9024 7.5625 1.7207 7.3808 1.7207 7.15625C1.7207 6.9317 1.9024 6.75 2.12695 6.75H2.93945C3.16401 6.75 3.3457 6.9317 3.3457 7.15625C3.3457 7.3808 3.16401 7.5625 2.93945 7.5625ZM2.93945 5.9375H2.12695C1.9024 5.9375 1.7207 5.7558 1.7207 5.53125C1.7207 5.3067 1.9024 5.125 2.12695 5.125H2.93945C3.16401 5.125 3.3457 5.3067 3.3457 5.53125C3.3457 5.7558 3.16401 5.9375 2.93945 5.9375ZM5.37695 10.8125H4.56445C4.3399 10.8125 4.1582 10.6308 4.1582 10.4062C4.1582 10.1817 4.3399 10 4.56445 10H5.37695C5.60151 10 5.7832 10.1817 5.7832 10.4062C5.7832 10.6308 5.60151 10.8125 5.37695 10.8125ZM5.37695 9.1875H4.56445C4.3399 9.1875 4.1582 9.00581 4.1582 8.78125C4.1582 8.55669 4.3399 8.375 4.56445 8.375H5.37695C5.60151 8.375 5.7832 8.55669 5.7832 8.78125C5.7832 9.00581 5.60151 9.1875 5.37695 9.1875ZM5.37695 7.5625H4.56445C4.3399 7.5625 4.1582 7.3808 4.1582 7.15625C4.1582 6.9317 4.3399 6.75 4.56445 6.75H5.37695C5.60151 6.75 5.7832 6.9317 5.7832 7.15625C5.7832 7.3808 5.60151 7.5625 5.37695 7.5625ZM5.37695 5.9375H4.56445C4.3399 5.9375 4.1582 5.7558 4.1582 5.53125C4.1582 5.3067 4.3399 5.125 4.56445 5.125H5.37695C5.60151 5.125 5.7832 5.3067 5.7832 5.53125C5.7832 5.7558 5.60151 5.9375 5.37695 5.9375ZM7.81445 7.5625H7.00195C6.7774 7.5625 6.5957 7.3808 6.5957 7.15625C6.5957 6.9317 6.7774 6.75 7.00195 6.75H7.81445C8.03901 6.75 8.2207 6.9317 8.2207 7.15625C8.2207 7.3808 8.03901 7.5625 7.81445 7.5625ZM7.81445 5.9375H7.00195C6.7774 5.9375 6.5957 5.7558 6.5957 5.53125C6.5957 5.3067 6.7774 5.125 7.00195 5.125H7.81445C8.03901 5.125 8.2207 5.3067 8.2207 5.53125C8.2207 5.7558 8.03901 5.9375 7.81445 5.9375ZM10.252 5.9375H9.43945C9.2149 5.9375 9.0332 5.7558 9.0332 5.53125C9.0332 5.3067 9.2149 5.125 9.43945 5.125H10.252C10.4765 5.125 10.6582 5.3067 10.6582 5.53125C10.6582 5.7558 10.4765 5.9375 10.252 5.9375ZM11.4707 3.5H0.908203V2.28125C0.908203 2.0571 1.0903 1.875 1.31445 1.875H2.12695V2.28125C2.12695 2.5058 2.30865 2.6875 2.5332 2.6875C2.75776 2.6875 2.93945 2.5058 2.93945 2.28125V1.875H4.56445V2.28125C4.56445 2.5058 4.74615 2.6875 4.9707 2.6875C5.19526 2.6875 5.37695 2.5058 5.37695 2.28125V1.875H7.00195V2.28125C7.00195 2.5058 7.18365 2.6875 7.4082 2.6875C7.63276 2.6875 7.81445 2.5058 7.81445 2.28125V1.875H9.43945V2.28125C9.43945 2.5058 9.62115 2.6875 9.8457 2.6875C10.0703 2.6875 10.252 2.5058 10.252 2.28125V1.875H11.0645C11.2886 1.875 11.4707 2.0571 11.4707 2.28125V3.5Z" fill="#FD6D22"/>
<path d="M10.252 7.5625C8.68408 7.5625 7.4082 8.83838 7.4082 10.4062C7.4082 11.9741 8.68408 13.25 10.252 13.25C11.8198 13.25 13.0957 11.9741 13.0957 10.4062C13.0957 8.83838 11.8198 7.5625 10.252 7.5625ZM11.877 10.8125H10.252C10.0274 10.8125 9.8457 10.6308 9.8457 10.4062V8.78125C9.8457 8.5567 10.0274 8.375 10.252 8.375C10.4765 8.375 10.6582 8.5567 10.6582 8.78125V10H11.877C12.1015 10 12.2832 10.1817 12.2832 10.4062C12.2832 10.6308 12.1015 10.8125 11.877 10.8125Z" fill="#FD6D22"/>
</g>
<defs>
<clipPath id="clip0">
<rect width="13" height="13" fill="white" transform="translate(0.0957031 0.25)"/>
</clipPath>
</defs>
</svg>
