<svg width="13" height="14" viewBox="0 0 13 14" fill="none" xmlns="http://www.w3.org/2000/svg">
<g clip-path="url(#clip0)">
<path d="M10.9688 1.3125H10.1562V0.90625C10.1562 0.681695 9.97456 0.5 9.75 0.5C9.52544 0.5 9.34375 0.681695 9.34375 0.90625V1.3125H7.71875V0.90625C7.71875 0.681695 7.53705 0.5 7.3125 0.5C7.08795 0.5 6.90625 0.681695 6.90625 0.90625V1.3125H5.28125V0.90625C5.28125 0.681695 5.09955 0.5 4.875 0.5C4.65045 0.5 4.46875 0.681695 4.46875 0.90625V1.3125H2.84375V0.90625C2.84375 0.681695 2.66205 0.5 2.4375 0.5C2.21295 0.5 2.03125 0.681695 2.03125 0.90625V1.3125H1.21875C0.546711 1.3125 0 1.85921 0 2.53125V12.2812C0 12.5058 0.181695 12.6875 0.40625 12.6875H7.11895C6.7288 12.106 6.5 11.4076 6.5 10.6562C6.5 8.64008 8.14008 7 10.1562 7C10.9076 7 11.606 7.2288 12.1875 7.61895V2.53125C12.1875 1.85921 11.6408 1.3125 10.9688 1.3125ZM2.84375 11.0625H2.03125C1.8067 11.0625 1.625 10.8808 1.625 10.6562C1.625 10.4317 1.8067 10.25 2.03125 10.25H2.84375C3.0683 10.25 3.25 10.4317 3.25 10.6562C3.25 10.8808 3.0683 11.0625 2.84375 11.0625ZM2.84375 9.4375H2.03125C1.8067 9.4375 1.625 9.25581 1.625 9.03125C1.625 8.80669 1.8067 8.625 2.03125 8.625H2.84375C3.0683 8.625 3.25 8.80669 3.25 9.03125C3.25 9.25581 3.0683 9.4375 2.84375 9.4375ZM2.84375 7.8125H2.03125C1.8067 7.8125 1.625 7.6308 1.625 7.40625C1.625 7.1817 1.8067 7 2.03125 7H2.84375C3.0683 7 3.25 7.1817 3.25 7.40625C3.25 7.6308 3.0683 7.8125 2.84375 7.8125ZM2.84375 6.1875H2.03125C1.8067 6.1875 1.625 6.0058 1.625 5.78125C1.625 5.5567 1.8067 5.375 2.03125 5.375H2.84375C3.0683 5.375 3.25 5.5567 3.25 5.78125C3.25 6.0058 3.0683 6.1875 2.84375 6.1875ZM5.28125 11.0625H4.46875C4.2442 11.0625 4.0625 10.8808 4.0625 10.6562C4.0625 10.4317 4.2442 10.25 4.46875 10.25H5.28125C5.5058 10.25 5.6875 10.4317 5.6875 10.6562C5.6875 10.8808 5.5058 11.0625 5.28125 11.0625ZM5.28125 9.4375H4.46875C4.2442 9.4375 4.0625 9.25581 4.0625 9.03125C4.0625 8.80669 4.2442 8.625 4.46875 8.625H5.28125C5.5058 8.625 5.6875 8.80669 5.6875 9.03125C5.6875 9.25581 5.5058 9.4375 5.28125 9.4375ZM5.28125 7.8125H4.46875C4.2442 7.8125 4.0625 7.6308 4.0625 7.40625C4.0625 7.1817 4.2442 7 4.46875 7H5.28125C5.5058 7 5.6875 7.1817 5.6875 7.40625C5.6875 7.6308 5.5058 7.8125 5.28125 7.8125ZM5.28125 6.1875H4.46875C4.2442 6.1875 4.0625 6.0058 4.0625 5.78125C4.0625 5.5567 4.2442 5.375 4.46875 5.375H5.28125C5.5058 5.375 5.6875 5.5567 5.6875 5.78125C5.6875 6.0058 5.5058 6.1875 5.28125 6.1875ZM7.71875 7.8125H6.90625C6.6817 7.8125 6.5 7.6308 6.5 7.40625C6.5 7.1817 6.6817 7 6.90625 7H7.71875C7.9433 7 8.125 7.1817 8.125 7.40625C8.125 7.6308 7.9433 7.8125 7.71875 7.8125ZM7.71875 6.1875H6.90625C6.6817 6.1875 6.5 6.0058 6.5 5.78125C6.5 5.5567 6.6817 5.375 6.90625 5.375H7.71875C7.9433 5.375 8.125 5.5567 8.125 5.78125C8.125 6.0058 7.9433 6.1875 7.71875 6.1875ZM10.1562 6.1875H9.34375C9.11919 6.1875 8.9375 6.0058 8.9375 5.78125C8.9375 5.5567 9.11919 5.375 9.34375 5.375H10.1562C10.3808 5.375 10.5625 5.5567 10.5625 5.78125C10.5625 6.0058 10.3808 6.1875 10.1562 6.1875ZM11.375 3.75H0.8125V2.53125C0.8125 2.3071 0.994602 2.125 1.21875 2.125H2.03125V2.53125C2.03125 2.7558 2.21295 2.9375 2.4375 2.9375C2.66205 2.9375 2.84375 2.7558 2.84375 2.53125V2.125H4.46875V2.53125C4.46875 2.7558 4.65045 2.9375 4.875 2.9375C5.09955 2.9375 5.28125 2.7558 5.28125 2.53125V2.125H6.90625V2.53125C6.90625 2.7558 7.08795 2.9375 7.3125 2.9375C7.53705 2.9375 7.71875 2.7558 7.71875 2.53125V2.125H9.34375V2.53125C9.34375 2.7558 9.52544 2.9375 9.75 2.9375C9.97456 2.9375 10.1562 2.7558 10.1562 2.53125V2.125H10.9688C11.1929 2.125 11.375 2.3071 11.375 2.53125V3.75Z" fill="#1BA5DE"/>
<path d="M10.1562 7.8125C8.58838 7.8125 7.3125 9.08838 7.3125 10.6562C7.3125 12.2241 8.58838 13.5 10.1562 13.5C11.7241 13.5 13 12.2241 13 10.6562C13 9.08838 11.7241 7.8125 10.1562 7.8125ZM11.7812 11.0625H10.1562C9.9317 11.0625 9.75 10.8808 9.75 10.6562V9.03125C9.75 8.8067 9.9317 8.625 10.1562 8.625C10.3808 8.625 10.5625 8.8067 10.5625 9.03125V10.25H11.7812C12.0058 10.25 12.1875 10.4317 12.1875 10.6562C12.1875 10.8808 12.0058 11.0625 11.7812 11.0625Z" fill="#1BA5DE"/>
</g>
<defs>
<clipPath id="clip0">
<rect width="13" height="13" fill="white" transform="translate(0 0.5)"/>
</clipPath>
</defs>
</svg>
