<svg width="15" height="15" viewBox="0 0 15 15" fill="none" xmlns="http://www.w3.org/2000/svg">
<circle cx="7.5" cy="7.5" r="7" fill="#FD6D22" stroke="white"/>
<path d="M10.888 5.48649L10.6587 5.2572C10.5867 5.18509 10.4906 5.14543 10.388 5.14543C10.2855 5.14543 10.1894 5.18509 10.1173 5.2572L6.89544 8.47902L4.88246 6.46598C4.81041 6.39399 4.71428 6.35427 4.61173 6.35427C4.50924 6.35427 4.41317 6.39399 4.34107 6.46598L4.11172 6.69522C4.03961 6.76744 4 6.86362 4 6.96605C4 7.06855 4.03961 7.16467 4.11172 7.23678L6.3845 9.50945C6.38751 9.51371 6.3907 9.5177 6.3944 9.52134L6.62375 9.74688C6.6958 9.8187 6.79192 9.85461 6.89527 9.85461H6.89646C6.99907 9.85461 7.09519 9.8187 7.16713 9.74688L7.39654 9.51935C7.40024 9.51571 7.40337 9.51269 7.40524 9.50962L10.8879 6.02726C11.0373 5.87821 11.0373 5.63571 10.888 5.48649Z" fill="white"/>
</svg>
