<svg width="25" height="25" viewBox="0 0 25 25" fill="none" xmlns="http://www.w3.org/2000/svg">
<circle cx="12.5" cy="12.5" r="12.5" fill="#1BA5DE"/>
<g clip-path="url(#clip0)">
<path d="M19.0154 8.62788L18.5745 8.18693C18.4359 8.04827 18.2512 7.97198 18.054 7.97198C17.8568 7.97198 17.6719 8.04827 17.5334 8.18693L11.3374 14.3827L7.46632 10.5115C7.32776 10.3731 7.14291 10.2967 6.94569 10.2967C6.74859 10.2967 6.56385 10.3731 6.42518 10.5115L5.98412 10.9523C5.84546 11.0912 5.76929 11.2762 5.76929 11.4732C5.76929 11.6703 5.84546 11.8551 5.98412 11.9938L10.3549 16.3643C10.3607 16.3725 10.3668 16.3802 10.3739 16.3872L10.815 16.8209C10.9535 16.959 11.1384 17.0281 11.3371 17.0281H11.3394C11.5367 17.0281 11.7216 16.959 11.8599 16.8209L12.3011 16.3834C12.3082 16.3764 12.3142 16.3706 12.3178 16.3647L19.0153 9.66781C19.3026 9.38118 19.3026 8.91484 19.0154 8.62788Z" fill="white"/>
</g>
<defs>
<clipPath id="clip0">
<rect width="13.4615" height="13.4615" fill="white" transform="translate(5.76929 5.76926)"/>
</clipPath>
</defs>
</svg>
