<svg width="15" height="11" viewBox="0 0 15 11" fill="none" xmlns="http://www.w3.org/2000/svg">
<path d="M14.0154 1.62786L13.5745 1.18692C13.4359 1.04825 13.2512 0.97197 13.054 0.97197C12.8568 0.97197 12.6719 1.04825 12.5334 1.18692L6.33744 7.38273L2.46632 3.5115C2.32776 3.37305 2.14291 3.29666 1.94569 3.29666C1.74859 3.29666 1.56385 3.37305 1.42518 3.5115L0.984124 3.95233C0.84546 4.09122 0.769287 4.27618 0.769287 4.47318C0.769287 4.67028 0.84546 4.85513 0.984124 4.9938L5.35486 9.36431C5.36066 9.37252 5.36679 9.38018 5.3739 9.38719L5.81496 9.82091C5.95351 9.95903 6.13836 10.0281 6.33711 10.0281H6.33941C6.53674 10.0281 6.72158 9.95903 6.85992 9.82091L7.30109 9.38336C7.3082 9.37635 7.31422 9.37055 7.31783 9.36464L14.0153 2.6678C14.3026 2.38116 14.3026 1.91482 14.0154 1.62786Z" fill="white"/>
</svg>
