<svg width="70" height="70" viewBox="0 0 70 70" fill="none" xmlns="http://www.w3.org/2000/svg">
<circle cx="35" cy="35" r="35" fill="#EBEBEB"/>
<path d="M34.8007 34.4877C36.6537 34.4877 38.258 33.8231 39.5692 32.5119C40.88 31.2009 41.5448 29.5968 41.5448 27.7436C41.5448 25.8911 40.8802 24.2868 39.569 22.9754C38.2578 21.6646 36.6535 21 34.8007 21C32.9475 21 31.3434 21.6646 30.0324 22.9756C28.7214 24.2866 28.0566 25.8909 28.0566 27.7436C28.0566 29.5968 28.7214 31.2011 30.0324 32.5121C31.3439 33.8229 32.9482 34.4877 34.8007 34.4877ZM31.1928 24.1358C32.1988 23.1298 33.3788 22.6408 34.8007 22.6408C36.2224 22.6408 37.4026 23.1298 38.4088 24.1358C39.4148 25.1419 39.904 26.3222 39.904 27.7436C39.904 29.1655 39.4148 30.3456 38.4088 31.3517C37.4026 32.3579 36.2224 32.8469 34.8007 32.8469C33.3793 32.8469 32.1992 32.3577 31.1928 31.3517C30.1867 30.3458 29.6975 29.1655 29.6975 27.7436C29.6975 26.3222 30.1867 25.1419 31.1928 24.1358Z" fill="#C4C4C4"/>
<path d="M46.6008 42.5307C46.563 41.9851 46.4865 41.3899 46.3739 40.7614C46.2603 40.1283 46.114 39.5297 45.9388 38.9826C45.7576 38.4171 45.5117 37.8587 45.2073 37.3236C44.8918 36.7682 44.521 36.2845 44.1048 35.8866C43.6697 35.4702 43.1369 35.1355 42.5208 34.8913C41.9069 34.6484 41.2265 34.5254 40.4987 34.5254C40.2128 34.5254 39.9364 34.6426 39.4026 34.9902C39.074 35.2045 38.6897 35.4523 38.2607 35.7263C37.894 35.96 37.3971 36.179 36.7833 36.3773C36.1845 36.571 35.5766 36.6693 34.9763 36.6693C34.3764 36.6693 33.7685 36.571 33.1693 36.3773C32.5562 36.1792 32.0591 35.9603 31.6929 35.7266C31.268 35.455 30.8835 35.2072 30.55 34.99C30.0166 34.6424 29.7402 34.5251 29.4543 34.5251C28.7263 34.5251 28.0461 34.6484 27.4324 34.8915C26.8167 35.1353 26.2838 35.47 25.8482 35.8868C25.432 36.285 25.0612 36.7684 24.7459 37.3236C24.4419 37.8587 24.1958 38.4169 24.0146 38.9828C23.8397 39.5299 23.6934 40.1283 23.5797 40.7614C23.4669 41.3891 23.3907 41.9844 23.3528 42.5313C23.3157 43.066 23.2969 43.6225 23.2969 44.1847C23.2969 45.6463 23.7615 46.8296 24.6777 47.7022C25.5826 48.5634 26.7798 49 28.2361 49H41.7182C43.1741 49 44.3712 48.5634 45.2763 47.7022C46.1928 46.8302 46.6574 45.6466 46.6574 44.1845C46.6572 43.6203 46.6382 43.0639 46.6008 42.5307ZM44.145 46.5134C43.5471 47.0825 42.7532 47.3592 41.718 47.3592H28.2361C27.2006 47.3592 26.4068 47.0825 25.8091 46.5136C25.2227 45.9555 24.9377 45.1935 24.9377 44.1847C24.9377 43.6601 24.955 43.142 24.9896 42.6447C25.0234 42.1568 25.0924 41.6208 25.1947 41.0513C25.2957 40.4888 25.4243 39.961 25.5773 39.4831C25.7241 39.0249 25.9242 38.5712 26.1725 38.1341C26.4094 37.7175 26.6819 37.3601 26.9827 37.0722C27.2641 36.8028 27.6187 36.5823 28.0365 36.417C28.423 36.264 28.8573 36.1803 29.3287 36.1677C29.3862 36.1982 29.4885 36.2566 29.6543 36.3647C29.9916 36.5845 30.3804 36.8353 30.8102 37.1098C31.2947 37.4187 31.9189 37.6977 32.6647 37.9384C33.4271 38.1849 34.2047 38.3101 34.9765 38.3101C35.7483 38.3101 36.5261 38.1849 37.2881 37.9386C38.0345 37.6974 38.6585 37.4187 39.1436 37.1093C39.5835 36.8282 39.9614 36.5847 40.2987 36.3647C40.4645 36.2568 40.5668 36.1982 40.6243 36.1677C41.0959 36.1803 41.5302 36.264 41.9169 36.417C42.3345 36.5823 42.6891 36.803 42.9705 37.0722C43.2713 37.3599 43.5439 37.7173 43.7808 38.1343C44.0292 38.5712 44.2296 39.0251 44.3761 39.4829C44.5293 39.9614 44.6581 40.4891 44.7589 41.0511C44.8611 41.6217 44.9303 42.1579 44.964 42.6449V42.6454C44.9988 43.1408 45.0164 43.6586 45.0166 44.1847C45.0164 45.1937 44.7314 45.9555 44.145 46.5134Z" fill="#C4C4C4"/>
</svg>
